
<svg width="48" height="48" viewBox="0 0 48 48" fill="none" xmlns="http://www.w3.org/2000/svg">
<g clip-path="url(#clip0_1_2)">
<mask id="mask0_1_2" style="mask-type:luminance" maskUnits="userSpaceOnUse" x="0" y="0" width="48" height="48">
<path d="M48 0H0V48H48V0Z" fill="white"/>
</mask>
<g mask="url(#mask0_1_2)">
<mask id="mask1_1_2" style="mask-type:luminance" maskUnits="userSpaceOnUse" x="0" y="0" width="48" height="48">
<path d="M48 0H0V48H48V0Z" fill="white"/>
</mask>
<g mask="url(#mask1_1_2)">
<path d="M36.75 0H11.25C5.0368 0 0 5.0368 0 11.25V36.75C0 42.9632 5.0368 48 11.25 48H36.75C42.9632 48 48 42.9632 48 36.75V11.25C48 5.0368 42.9632 0 36.75 0Z" fill="#242938"/>
<mask id="mask2_1_2" style="mask-type:alpha" maskUnits="userSpaceOnUse" x="15" y="5" width="17" height="18">
<path d="M15.8243 7.023C18.0409 6.40633 21.3242 5.48169 22.7088 5.09133C23.1373 4.97054 23.5903 4.9696 24.0195 5.08827C25.3534 5.45715 28.4562 6.31915 30.8554 7.01617C31.3407 7.15718 31.6717 7.58908 31.6597 8.06853C31.3825 19.1476 25.4621 21.8054 23.7955 22.3351C23.5105 22.4257 23.2144 22.426 22.9291 22.3361C21.2545 21.8089 15.285 19.1568 15.0003 8.08383C14.9878 7.597 15.3297 7.1606 15.8243 7.023Z" fill="#D9D9D9"/>
</mask>
<g mask="url(#mask2_1_2)">
<path d="M23.3625 13.4323L23.2318 4.59809L32.1931 6.88386L23.3625 13.4323Z" fill="url(#paint0_linear_1_2)"/>
<path d="M23.3626 13.4323V4.90703L14.7936 7.06922L13.6162 12.3203L17.3447 17.8185L23.3626 13.4323Z" fill="url(#paint1_linear_1_2)"/>
<path d="M31.9314 7.06925L17.2138 17.8185V22.6991H31.7352L31.9314 7.06925Z" fill="url(#paint2_linear_1_2)"/>
</g>
</g>
</g>
<path d="M15.8041 27.9983C14.513 22.7433 11.8222 21.3443 11.1357 20.3554C10.8527 19.9197 10.6019 19.4669 10.3852 19C10.3489 19.4668 10.2823 19.7609 9.8522 20.115C8.98871 20.8253 5.32125 23.5828 5.0126 29.5536C4.72504 35.1207 9.44833 38.5534 10.0723 38.9083C10.5521 39.1262 11.1365 38.913 11.4216 38.713C13.6984 37.2713 16.8093 33.4276 15.8066 27.9983" fill="#10AA50"/>
<path d="M10.3701 36C10.2832 37.4588 10.2209 38.3064 10 39.1401C10 39.1401 10.1449 40.5289 10.2468 42H10.607C10.693 40.9641 10.8241 39.9357 11 38.9201C10.5336 38.6137 10.388 37.2801 10.3701 36Z" fill="#B8C4C2"/>
<path d="M11.0774 39C10.3816 38.7196 10.1804 37.406 10.1494 36.1825C10.3214 34.164 10.3716 32.139 10.2997 30.1159C10.2632 29.0544 10.3169 20.284 10 19C10.2169 19.4349 10.4666 19.8567 10.7478 20.2626C11.4891 21.2733 14.3959 22.7019 15.7893 28.0683C16.8748 33.6033 13.5335 37.5181 11.0774 39Z" fill="#12924F"/>
<mask id="mask3_1_2" style="mask-type:luminance" maskUnits="userSpaceOnUse" x="27" y="21" width="18" height="21">
<path d="M44.06 21H27V41.5207H44.06V21Z" fill="white"/>
</mask>
<g mask="url(#mask3_1_2)">
<path d="M42.9644 23.7129C41.0689 20.9826 37.2951 20.1826 34.5823 21.9043L29.7999 24.965C28.4956 25.7824 27.5913 27.1214 27.3304 28.6344C27.1044 29.9039 27.2957 31.2081 27.9043 32.3386C27.487 32.9646 27.2087 33.6602 27.087 34.3907C26.8087 35.9384 27.1739 37.5383 28.0782 38.8078C29.9912 41.5382 33.7475 42.338 36.4604 40.6164L41.2428 37.5731C42.5471 36.7557 43.4514 35.4167 43.7122 33.9036C43.9383 32.6342 43.747 31.3299 43.1383 30.1995C43.5557 29.5734 43.8339 28.8779 43.9557 28.1475C44.2513 26.5823 43.8862 24.9824 42.9644 23.7129Z" fill="white"/>
<path d="M34.1127 39.0686C32.565 39.4686 30.9476 38.86 30.0433 37.5557C29.4868 36.7905 29.2781 35.8341 29.4346 34.8949C29.4694 34.7384 29.5042 34.5993 29.539 34.4428L29.6259 34.1646L29.8694 34.3385C30.4433 34.7558 31.0693 35.0689 31.7476 35.2775L31.9215 35.3297L31.9041 35.5036C31.8867 35.7471 31.9562 36.0079 32.0954 36.2167C32.3737 36.6166 32.8606 36.8079 33.33 36.6861C33.4345 36.6514 33.5388 36.6166 33.6258 36.5644L38.3907 33.5211C38.6342 33.3646 38.7907 33.1386 38.8428 32.8603C38.895 32.582 38.8255 32.2864 38.669 32.0603C38.3907 31.6603 37.9038 31.4864 37.4342 31.6082C37.3299 31.6429 37.2256 31.6777 37.1386 31.7299L35.3126 32.8951C35.017 33.0864 34.6866 33.2254 34.3387 33.3124C32.791 33.7124 31.1737 33.1037 30.2694 31.7995C29.7303 31.0343 29.5042 30.0778 29.6781 29.1387C29.8346 28.2345 30.3911 27.4171 31.1737 26.9301L35.956 23.8868C36.2516 23.6955 36.5821 23.5564 36.9299 23.452C38.4777 23.0521 40.0949 23.6607 40.9993 24.965C41.5558 25.7302 41.7644 26.6867 41.608 27.6257C41.5731 27.7823 41.5383 27.9214 41.4862 28.0779L41.3992 28.3561L41.1557 28.1822C40.5819 27.7649 39.9558 27.4518 39.2776 27.2432L39.1037 27.191L39.1211 27.0171C39.1385 26.7736 39.0689 26.5128 38.9298 26.3041C38.6515 25.9041 38.1646 25.7302 37.6951 25.8519C37.5907 25.8867 37.4864 25.9215 37.3994 25.9737L32.6345 29.017C32.391 29.1735 32.2345 29.3996 32.1823 29.6779C32.1301 29.956 32.1997 30.2518 32.3562 30.4778C32.6345 30.8778 33.1214 31.0516 33.591 30.93C33.6953 30.8952 33.7996 30.8603 33.8866 30.8082L35.7126 29.6431C36.0082 29.4518 36.3386 29.3126 36.6864 29.2083C38.2341 28.8082 39.8515 29.4169 40.7558 30.7212C41.3122 31.4864 41.521 32.4429 41.3645 33.382C41.2079 34.2862 40.6515 35.1037 39.8688 35.5906L35.0865 38.6339C34.7909 38.8252 34.4605 38.9643 34.1127 39.0686Z" fill="#FF3E00"/>
</g>
</g>
<defs>
<linearGradient id="paint0_linear_1_2" x1="23.3625" y1="4.90698" x2="29.4212" y2="9.11683" gradientUnits="userSpaceOnUse">
<stop stop-color="#19AAE8"/>
<stop offset="1" stop-color="#1EA5F1"/>
</linearGradient>
<linearGradient id="paint1_linear_1_2" x1="15.0553" y1="7.25458" x2="23.0033" y2="13.7485" gradientUnits="userSpaceOnUse">
<stop stop-color="#2BE2B8"/>
<stop offset="1" stop-color="#19B9E3"/>
</linearGradient>
<linearGradient id="paint2_linear_1_2" x1="31.6043" y1="7.13102" x2="21.5469" y2="21.8857" gradientUnits="userSpaceOnUse">
<stop stop-color="#925CDF"/>
<stop offset="1" stop-color="#CC42E5"/>
</linearGradient>
<clipPath id="clip0_1_2">
<rect width="48" height="48" fill="white"/>
</clipPath>
</defs>
</svg>
